<?xml version="1.0" standalone="no"?>
<!DOCTYPE svg PUBLIC "-//W3C//DTD SVG 20010904//EN"
 "http://www.w3.org/TR/2001/REC-SVG-20010904/DTD/svg10.dtd">
<svg version="1.0" xmlns="http://www.w3.org/2000/svg"
 width="773.000000pt" height="223.000000pt" viewBox="0 0 773.000000 223.000000"
 preserveAspectRatio="xMidYMid meet">

<g transform="translate(0.000000,223.000000) scale(0.100000,-0.100000)"
fill="#000000" stroke="none">
<path d="M4005 1972 l-190 -247 -3 218 -2 217 -220 0 -220 0 0 -775 0 -775
220 0 220 0 0 283 1 282 20 -25 21 -24 76 28 c43 15 85 30 95 33 16 5 17 -13
17 -286 l0 -291 219 0 220 0 3 49 3 50 79 -68 78 -68 280 134 c155 74 286 132
292 130 6 -3 29 -60 51 -127 22 -67 44 -124 50 -126 5 -2 101 29 212 69 l202
74 58 -59 57 -58 261 0 260 0 130 130 130 130 5 -127 5 -128 217 -3 218 -2 2
282 3 283 103 3 102 3 0 -286 0 -285 220 0 220 0 0 775 0 775 -220 0 -220 0 0
-285 0 -286 -102 3 -103 3 -3 283 -2 282 -218 -2 -217 -3 -5 -128 -5 -127
-130 130 -130 130 -260 0 -260 0 -147 -147 -148 -148 0 -255 0 -255 53 -38
c28 -20 70 -53 92 -72 l40 -34 -91 -1 -91 0 -163 458 c-89 251 -167 465 -172
475 -8 15 -28 17 -201 17 l-193 0 -171 -472 -172 -473 -1 105 0 105 -101 101
-102 102 29 35 c16 19 76 89 134 156 58 67 105 126 105 130 0 10 -330 271
-342 271 -4 -1 -93 -112 -198 -248z m316 12 l76 -60 -184 -213 c-102 -117
-183 -214 -181 -217 2 -2 41 9 86 23 l82 27 85 -84 85 -85 0 -332 0 -333 -110
0 -110 0 0 315 c0 173 -1 315 -3 315 -1 0 -59 -22 -128 -48 l-125 -48 -68 105
c-60 94 -67 108 -55 126 12 20 352 463 416 543 23 28 39 40 46 34 7 -5 46 -36
88 -68z m-621 -609 l0 -665 -110 0 -110 0 0 665 0 665 110 0 110 0 0 -665z
m1464 593 c269 -745 421 -1184 411 -1190 -17 -10 -177 -68 -190 -68 -6 0 -31
61 -55 135 -24 74 -49 135 -55 135 -6 0 -147 -65 -314 -145 l-302 -145 -92 82
c-51 44 -91 86 -91 92 1 8 335 937 419 1164 3 9 37 12 124 12 l119 0 26 -72z
m1274 -47 l112 -119 0 -66 0 -66 -110 0 -110 0 0 70 0 70 -220 0 -220 0 0
-189 0 -188 133 28 c72 16 170 36 217 45 l86 17 109 -84 110 -85 2 -204 3
-205 -113 -118 -112 -118 -215 1 -215 0 -117 117 -118 118 0 77 0 78 115 0
115 0 0 -80 0 -80 220 0 220 0 0 185 c0 173 -1 185 -18 185 -10 0 -104 -18
-208 -40 -104 -22 -196 -40 -205 -40 -9 0 -67 38 -128 85 l-111 86 0 202 0
202 117 117 118 118 215 0 216 0 112 -119z m532 -161 l0 -280 210 0 210 0 0
280 0 280 110 0 110 0 0 -665 0 -665 -110 0 -110 0 0 280 0 280 -210 0 -210 0
0 -280 0 -280 -115 0 -115 0 0 665 0 665 115 0 115 0 0 -280z m-750 -93 l0
-44 -103 -21 c-57 -12 -109 -22 -115 -22 -8 0 -12 23 -12 65 l0 65 115 0 115
0 0 -43z m410 -158 c0 -56 -3 -69 -12 -62 -35 26 -154 118 -162 125 -6 4 31 8
82 8 l92 0 0 -71z m-410 -384 l0 -65 -115 0 -115 0 0 43 0 44 93 20 c145 32
137 34 137 -42z"/>
<path d="M4878 1363 c-75 -213 -135 -390 -133 -392 5 -4 445 205 457 218 8 7
-172 561 -182 561 -3 0 -67 -174 -142 -387z m175 -26 l26 -77 -71 -36 c-38
-19 -72 -33 -74 -31 -2 2 14 57 37 121 23 64 45 113 49 109 4 -4 19 -43 33
-86z"/>
<path d="M2455 2150 c-77 -21 -159 -43 -182 -49 l-43 -12 0 -739 0 -740 220 0
220 0 0 278 0 277 152 -295 c83 -162 152 -296 153 -298 1 -1 88 21 193 49
l192 52 0 744 0 743 -217 -2 -218 -3 -5 -272 -5 -272 -148 290 c-82 159 -154
289 -160 288 -7 -1 -75 -18 -152 -39z m340 -555 l230 -455 3 450 2 450 115 0
115 0 -2 -647 -3 -646 -108 -30 c-62 -17 -112 -26 -117 -21 -4 5 -111 212
-236 459 l-229 450 -3 -447 -2 -448 -110 0 -110 0 0 644 0 644 98 25 c53 14
104 25 112 26 10 0 92 -151 245 -454z"/>
<path d="M196 2009 l-146 -150 2 -622 3 -622 218 -3 217 -2 0 225 c0 124 1
225 3 225 1 0 85 -18 187 -39 151 -33 188 -37 200 -27 8 7 61 52 116 99 56 48
104 87 108 87 3 0 6 -60 6 -133 l0 -132 153 -153 152 -152 255 0 255 0 148
148 147 147 0 628 0 627 -220 0 -220 0 0 -550 0 -550 -115 0 -115 0 0 550 0
550 -217 -2 -218 -3 -5 -118 -5 -117 -120 120 -120 120 -261 0 -262 0 -146
-151z m741 -81 l113 -113 0 -272 0 -272 -105 -91 c-58 -49 -111 -90 -118 -90
-22 1 -368 77 -374 83 -4 5 33 196 40 203 1 2 72 -15 157 -36 85 -22 161 -40
168 -40 9 0 12 58 12 255 l0 255 -220 0 -220 0 0 -550 0 -550 -115 0 -115 0 0
547 0 548 117 117 118 118 215 0 215 0 112 -112z m513 -438 l0 -550 220 0 220
0 0 550 0 550 115 0 115 0 0 -548 0 -547 -118 -118 -117 -117 -215 0 -215 0
-117 117 -118 118 0 547 0 548 115 0 115 0 0 -550z m-730 90 c0 -83 -4 -130
-10 -130 -6 0 -58 12 -115 26 l-105 26 0 104 0 104 115 0 115 0 0 -130z"/>
<path d="M55 398 c-27 -15 -35 -28 -35 -60 0 -27 20 -47 80 -80 41 -23 38 -54
-5 -51 -17 0 -39 3 -50 5 -12 2 -21 -3 -23 -14 -2 -11 8 -20 32 -28 47 -15 93
-4 113 27 25 38 8 73 -52 103 -52 26 -69 55 -39 67 9 3 29 2 45 -4 19 -8 31
-7 38 0 17 17 13 24 -20 36 -40 14 -59 13 -84 -1z"/>
<path d="M284 401 c-41 -18 -74 -69 -74 -117 0 -37 6 -51 34 -82 31 -34 39
-37 86 -37 47 0 55 3 86 37 28 31 34 45 34 83 0 37 -6 52 -33 81 -34 38 -91
53 -133 35z m95 -57 c37 -31 42 -79 11 -112 -53 -57 -139 -23 -140 55 0 35 46
83 80 83 10 0 32 -12 49 -26z"/>
<path d="M500 285 c0 -118 1 -125 20 -125 17 0 20 7 20 50 l0 50 51 0 c43 0
50 3 47 18 -2 13 -15 18 -51 20 -46 3 -47 4 -47 38 l0 34 55 0 c48 0 55 2 55
20 0 18 -7 20 -75 20 l-75 0 0 -125z"/>
<path d="M680 390 c0 -16 7 -20 30 -20 l30 0 0 -105 c0 -98 1 -105 20 -105 19
0 20 7 20 105 l0 105 30 0 c23 0 30 4 30 20 0 18 -7 20 -80 20 -73 0 -80 -2
-80 -20z"/>
<path d="M853 396 c3 -8 11 -34 17 -58 31 -117 52 -180 59 -172 5 5 21 42 36
82 15 41 31 70 35 65 4 -4 20 -41 35 -81 16 -40 32 -69 36 -65 6 7 69 220 69
236 0 4 -9 7 -19 7 -15 0 -22 -14 -36 -70 -9 -38 -21 -68 -25 -65 -5 3 -19 34
-32 70 -12 36 -26 65 -30 65 -3 0 -19 -31 -34 -70 -15 -38 -31 -67 -35 -64 -5
3 -9 10 -9 16 0 5 -7 34 -16 64 -12 43 -20 54 -36 54 -13 0 -18 -5 -15 -14z"/>
<path d="M1209 294 c-30 -64 -55 -121 -57 -125 -7 -19 38 -8 48 11 9 16 21 20
65 20 44 0 56 -4 65 -20 9 -16 50 -30 50 -16 0 7 -103 231 -110 239 -3 4 -31
-45 -61 -109z m91 -46 c0 -5 -16 -8 -35 -8 -19 0 -35 2 -35 5 0 2 8 20 17 40
l17 36 18 -33 c9 -18 17 -36 18 -40z"/>
<path d="M1410 285 c0 -118 1 -125 20 -125 17 0 20 7 20 45 0 41 2 45 25 45
20 0 30 -9 47 -45 17 -34 28 -45 45 -45 28 0 28 5 -1 53 l-24 38 24 24 c34 34
33 87 -2 114 -21 16 -41 21 -90 21 l-64 0 0 -125z m134 63 c18 -29 -4 -53 -53
-56 l-41 -3 0 41 0 41 41 -3 c27 -2 46 -9 53 -20z"/>
<path d="M1640 285 l0 -125 75 0 c68 0 75 2 75 20 0 18 -7 20 -55 20 -54 0
-55 0 -55 29 0 28 2 30 47 33 36 2 49 7 51 21 3 14 -4 17 -47 17 l-51 0 0 35
0 35 55 0 c48 0 55 2 55 20 0 18 -7 20 -75 20 l-75 0 0 -125z"/>
<path d="M1920 285 l0 -125 75 0 c68 0 75 2 75 20 0 18 -7 20 -55 20 -54 0
-55 0 -55 29 0 28 2 30 47 33 36 2 49 7 51 21 3 14 -4 17 -47 17 l-51 0 0 35
0 35 55 0 c48 0 55 2 55 20 0 18 -7 20 -75 20 l-75 0 0 -125z"/>
<path d="M2130 285 c0 -118 1 -125 20 -125 18 0 20 7 20 83 l1 82 78 -82 c43
-46 81 -83 85 -83 3 0 6 56 6 125 0 118 -1 125 -20 125 -18 0 -20 -7 -20 -77
l0 -78 -78 78 c-42 42 -81 77 -85 77 -4 0 -7 -56 -7 -125z"/>
<path d="M2451 392 c-47 -25 -75 -81 -66 -129 14 -75 90 -116 173 -93 l42 11
0 49 0 50 -40 0 c-33 0 -40 -3 -40 -20 0 -13 7 -20 20 -20 31 0 24 -28 -9 -35
-86 -19 -137 83 -70 139 34 29 47 31 84 14 34 -15 58 4 33 28 -25 25 -88 28
-127 6z"/>
<path d="M2640 285 c0 -118 1 -125 20 -125 19 0 20 7 20 125 0 118 -1 125 -20
125 -19 0 -20 -7 -20 -125z"/>
<path d="M2750 285 c0 -118 1 -125 20 -125 18 0 20 7 20 83 l1 82 78 -82 c43
-46 81 -83 85 -83 3 0 6 56 6 125 0 118 -1 125 -20 125 -18 0 -20 -7 -20 -77
l0 -78 -78 78 c-42 42 -81 77 -85 77 -4 0 -7 -56 -7 -125z"/>
<path d="M3020 285 l0 -125 75 0 c68 0 75 2 75 20 0 18 -7 20 -55 20 -54 0
-55 0 -55 29 0 28 2 30 47 33 36 2 49 7 51 21 3 14 -4 17 -47 17 l-51 0 0 35
0 35 55 0 c48 0 55 2 55 20 0 18 -7 20 -75 20 l-75 0 0 -125z"/>
<path d="M3230 285 l0 -125 75 0 c68 0 75 2 75 20 0 18 -7 20 -55 20 -54 0
-55 0 -55 29 0 28 2 30 47 33 36 2 49 7 51 21 3 14 -4 17 -47 17 l-51 0 0 35
0 35 55 0 c48 0 55 2 55 20 0 18 -7 20 -75 20 l-75 0 0 -125z"/>
<path d="M3430 285 c0 -118 1 -125 20 -125 17 0 20 7 20 45 0 41 2 45 25 45
20 0 30 -9 47 -45 17 -34 28 -45 45 -45 28 0 28 5 -1 53 l-24 38 24 24 c34 34
33 87 -2 114 -21 16 -41 21 -90 21 l-64 0 0 -125z m134 63 c18 -29 -4 -53 -53
-56 l-41 -3 0 41 0 41 41 -3 c27 -2 46 -9 53 -20z"/>
<path d="M3670 285 c0 -118 1 -125 20 -125 19 0 20 7 20 125 0 118 -1 125 -20
125 -19 0 -20 -7 -20 -125z"/>
<path d="M3770 285 c0 -118 1 -125 20 -125 18 0 20 7 20 83 l1 82 78 -82 c43
-46 81 -83 85 -83 3 0 6 56 6 125 0 118 -1 125 -20 125 -18 0 -20 -7 -20 -77
l0 -78 -78 78 c-42 42 -81 77 -85 77 -4 0 -7 -56 -7 -125z"/>
<path d="M4091 392 c-47 -25 -75 -81 -66 -129 14 -75 90 -116 173 -93 l42 11
0 49 0 50 -40 0 c-33 0 -40 -3 -40 -20 0 -13 7 -20 20 -20 31 0 24 -28 -9 -35
-86 -19 -137 83 -70 139 34 29 47 31 84 14 34 -15 58 4 33 28 -25 25 -88 28
-127 6z"/>
</g>
</svg>
